<?xml version="1.0" encoding="UTF-8"?>
<svg width="1081px" height="211px" viewBox="0 0 1081 211" version="1.1" xmlns="http://www.w3.org/2000/svg" xmlns:xlink="http://www.w3.org/1999/xlink">
    <!-- Generator: Sketch 49.3 (51167) - http://www.bohemiancoding.com/sketch -->
    <title>Artboard</title>
    <desc>Created with Sketch.</desc>
    <defs></defs>
    <g id="Artboard" stroke="none" stroke-width="1" fill="none" fill-rule="evenodd">
        <g id="Group" transform="translate(3.000000, 4.000000)" fill="#FFFFFF">
            <g id="bitbond_logo_full_white" transform="translate(0.000000, 36.000000)" fill-rule="nonzero">
                <g id="XMLID_11_" transform="translate(0.000000, 6.215260)">
                    <rect id="XMLID_5_" x="85.9417383" y="0.149924204" width="34.3767559" height="34.3767559"></rect>
                    <rect id="XMLID_6_" x="85.9417383" y="43.1208691" width="34.3767559" height="34.3767559"></rect>
                    <rect id="XMLID_7_" x="85.9417383" y="86.0916625" width="34.3767559" height="34.3767559"></rect>
                    <rect id="XMLID_9_" x="42.9709449" y="43.1208691" width="34.3767559" height="34.3767559"></rect>
                    <rect id="XMLID_8_" x="42.9709449" y="86.0916625" width="34.3767559" height="34.3767559"></rect>
                    <rect id="XMLID_10_" x="0" y="86.0916625" width="34.3767559" height="34.3767559"></rect>
                </g>
                <g id="XMLID_2_" transform="translate(135.371400, 0.000000)">
                    <path d="M0.0468418393,126.427489 L0.0468418393,6.51844366 L42.0234967,6.51844366 C56.564477,6.51844366 67.5927741,9.30151592 75.1108135,14.867812 C82.628853,20.4341081 86.3878727,28.5915614 86.3878727,39.3380495 C86.3878727,45.2075291 84.8790803,50.3757453 81.8614957,54.8430015 C78.8439111,59.3125316 74.6443658,62.5884285 69.2675594,64.6728146 C75.4117231,66.21238 80.2555331,69.3200101 83.79429,73.9910056 C87.333047,78.662001 89.1046993,84.3797372 89.1046993,91.1398181 C89.1046993,102.684437 85.4261748,111.422335 78.0739768,117.35806 C70.7217787,123.293785 60.240576,126.318494 46.6327943,126.427489 L0.0468418393,126.427489 Z M24.7397676,56.6953007 L43.0112683,56.6953007 C55.4654371,56.4773118 61.6949469,51.5175341 61.6949469,41.8179384 C61.6949469,36.3938353 60.1174836,32.4879232 56.9624053,30.1050531 C53.8073269,27.7221829 48.8261748,26.5285498 42.0234967,26.5285498 L24.7397676,26.5285498 L24.7397676,56.6953007 Z M24.7397676,74.1283477 L24.7397676,106.568974 L45.8915109,106.568974 C51.7088428,106.568974 56.2494694,105.181001 59.5133906,102.400202 C62.7773118,99.6218292 64.411622,95.7845882 64.411622,90.8863567 C64.411622,79.8817079 58.7316321,74.294189 47.3740778,74.1283477 L24.7397676,74.1283477 Z" id="XMLID_3_"></path>
                    <path d="M105.889995,14.2092976 C105.889995,10.6515917 107.081354,7.72162708 109.468924,5.42167761 C111.856493,3.12172815 115.106316,1.97069227 119.222941,1.97069227 C123.282719,1.97069227 126.520718,3.12187974 128.936635,5.42182921 C131.350278,7.72177868 132.558312,10.6517433 132.558312,14.2094492 C132.558312,17.824002 131.33618,20.7800404 128.894037,23.0799899 C126.451895,25.3799394 123.228297,26.5285498 119.222941,26.5285498 C115.217585,26.5285498 111.993835,25.3797878 109.551844,23.0798383 C107.109853,20.7798888 105.889995,17.8238504 105.889995,14.2092976 Z M131.158363,126.427489 L107.289793,126.427489 L107.289793,37.2915614 L131.158363,37.2915614 L131.158363,126.427489 Z" id="XMLID_14_"></path>
                    <path d="M179.242041,15.4623547 L179.242041,37.2915614 L194.469884,37.2915614 L194.469884,54.7246084 L179.242041,54.7246084 L179.242041,99.2949975 C179.242041,102.596817 179.872057,104.963163 181.134512,106.393734 C182.394543,107.824457 184.810611,108.539666 188.377716,108.539666 C191.011622,108.539666 193.342345,108.347751 195.374583,107.964073 L195.374583,125.958464 C190.708439,127.382062 185.907226,128.094997 180.970945,128.094997 C164.288732,128.094997 155.783072,119.660283 155.453815,102.786306 L155.453815,54.7246084 L142.450126,54.7246084 L142.450126,37.2915614 L155.453815,37.2915614 L155.453815,15.4623547 L179.242041,15.4623547 Z" id="XMLID_17_"></path>
                    <path d="M287.947852,82.7572511 C287.947852,97.0211218 284.901769,108.141738 278.809752,116.123951 C272.717736,124.106165 264.214351,128.094997 253.295048,128.094997 C243.635776,128.094997 235.925973,124.3857 230.165488,116.967256 L229.094795,126.427489 L207.69429,126.427489 L207.69429,0 L231.482365,0 L231.482365,45.3992926 C236.968166,38.985144 244.185296,35.7756443 253.129207,35.7756443 C263.994088,35.7756443 272.513997,39.7667509 278.68666,47.7489641 C284.859323,55.7311774 287.948004,66.9607883 287.948004,81.4426478 L287.948004,82.7572511 L287.947852,82.7572511 Z M264.157504,80.9475493 C264.157504,71.9514907 262.729207,65.3833249 259.877463,61.2406266 C257.023295,57.1003537 252.771602,55.0277918 247.120111,55.0277918 C239.545225,55.0277918 234.331986,58.1282971 231.480091,64.3270339 L231.480091,99.4631127 C234.388833,105.716271 239.656645,108.84285 247.283527,108.84285 C254.964982,108.84285 260.012532,105.057756 262.428449,97.4877211 C263.579485,93.8684689 264.157504,88.3543204 264.157504,80.9475493 Z" id="XMLID_19_"></path>
                    <path d="M298.921273,81.1133906 C298.921273,72.2831733 300.621981,64.4098029 304.023244,57.498282 C307.424507,50.586761 312.32289,45.2383022 318.715816,41.4532087 C325.106316,37.6681152 332.529611,35.7756443 340.980849,35.7756443 C352.996918,35.7756443 362.805356,39.4517433 370.406165,46.8015159 C378.004699,54.153714 382.244568,64.1373926 383.123345,76.7527034 L383.286761,82.8400202 C383.286761,96.4997979 379.47332,107.45715 371.846286,115.711774 C364.219404,123.968823 353.984538,128.094997 341.144265,128.094997 C328.303992,128.094997 318.057302,123.983072 310.40192,115.754522 C302.746539,107.525973 298.921273,96.3365336 298.921273,82.1816574 L298.921273,81.1133906 Z M322.706923,82.7975745 C322.706923,91.2345629 324.29621,97.6843355 327.479636,102.146892 C330.663062,106.611723 335.217938,108.843002 341.144265,108.843002 C346.90475,108.843002 351.405205,106.640222 354.643052,102.229813 C357.880899,97.8194037 359.501112,90.7681152 359.501112,81.0733704 C359.501112,72.8022233 357.880899,66.395048 354.643052,61.8472966 C351.405205,57.3016675 346.850328,55.0277918 340.980849,55.0277918 C335.163517,55.0277918 330.663214,57.2874179 327.479788,61.8068216 C324.296362,66.3262254 322.706923,73.3230925 322.706923,82.7975745 Z" id="XMLID_22_"></path>
                    <path d="M419.835978,37.2915614 L420.577413,47.5903992 C426.941839,39.7147549 435.473724,35.7756443 446.175038,35.7756443 C455.611622,35.7756443 462.636988,38.5468924 467.246286,44.0846892 C471.855584,49.6224861 474.214805,57.9031834 474.3238,68.9267812 L474.3238,126.427489 L450.538151,126.427489 L450.538151,69.4384032 C450.538151,64.3885801 449.439111,60.7243052 447.24573,58.4455786 C445.050076,56.1670035 441.400051,55.0276402 436.297928,55.0276402 C429.601819,55.0276402 424.580344,57.8842345 421.235927,63.592572 L421.235927,126.427489 L397.447701,126.427489 L397.447701,37.2915614 L419.835978,37.2915614 Z" id="XMLID_25_"></path>
                    <path d="M488.666498,81.2768065 C488.666498,67.3990399 491.778828,56.3470945 498.008338,48.1185447 C504.235422,39.8899949 512.755331,35.7756443 523.565791,35.7756443 C532.235018,35.7756443 539.395301,39.0112178 545.046791,45.4822132 L545.046791,0 L568.917787,0 L568.917787,126.427489 L547.434361,126.427489 L546.283173,116.967256 C540.356847,124.3857 532.727539,128.094997 523.399949,128.094997 C512.918747,128.094997 504.510258,123.968823 498.171753,115.711774 C491.833249,107.45715 488.666498,95.9789288 488.666498,81.2768065 Z M512.452148,82.9656897 C512.452148,91.3174836 513.906518,97.7173825 516.815109,102.168115 C519.723699,106.618848 523.949469,108.84285 529.491966,108.84285 C536.844164,108.84285 542.029055,105.739919 545.04664,99.5293583 L545.04664,64.3412835 C542.083628,58.1329965 536.953158,55.0277918 529.655382,55.0277918 C518.186559,55.0277918 512.452148,64.3412835 512.452148,82.9656897 Z" id="XMLID_27_"></path>
                </g>
            </g>
            <path d="M853.006676,126.416388 C854.11772,118.336067 849.926116,112.427421 840.43174,108.690273 L827.326535,103.917857 L822.932882,102.024041 C808.186297,95.3072747 801.292877,85.8635414 802.252415,73.6925582 C802.757435,67.5818157 804.853237,62.1781822 808.539883,57.4814957 C812.226529,52.7848093 817.112525,49.1613448 823.198017,46.6109935 C829.283508,44.0606423 835.760293,42.8612376 842.628566,43.0127437 C849.29483,43.1642497 855.241352,44.6540365 860.46831,47.4821487 C865.695267,50.310261 869.672241,54.2619836 872.399349,59.3374351 C875.126457,64.4128866 876.338487,70.1321529 876.035475,76.4954055 L861.718228,76.4196529 C862.223248,69.6523842 860.708211,64.4128798 857.17307,60.7009824 C853.63793,56.9890851 848.587805,55.082663 842.022545,54.981659 C835.10377,54.880655 829.321377,56.4966949 824.675193,59.8298272 C820.029008,63.1629595 817.352442,67.7080718 816.645414,73.4653004 C815.635374,80.9900991 820.256238,86.69674 830.508145,90.5853944 L841.795287,94.6002837 L847.476734,97.0243679 C861.718299,103.589628 868.308712,113.336369 867.24817,126.264883 C866.692648,132.476629 864.596846,137.842387 860.960702,142.362316 C857.324558,146.882246 852.388061,150.379457 846.151063,152.854055 C839.914065,155.328653 833.210025,156.490182 826.03874,156.338676 C819.119965,156.288174 812.794684,154.811013 807.062707,151.907147 C801.330729,149.003282 796.974996,145.026309 793.995378,139.976108 C791.01576,134.925908 789.702727,129.194016 790.056241,122.780262 L804.297736,122.856014 C803.843218,129.421275 805.623387,134.635529 809.638296,138.498932 C813.653205,142.362335 819.32197,144.344509 826.644761,144.445513 C833.967552,144.546517 840.002451,142.955728 844.749639,139.673098 C849.496828,136.390467 852.249146,131.971608 853.006676,126.416388 Z M973.242932,56.4967116 L938.926991,56.4967116 L921.88265,154.823623 L907.716908,154.823623 L924.761249,56.4967116 L890.445309,56.4967116 L892.566382,44.5277962 L975.364005,44.5277962 L973.242932,56.4967116 Z M1012.12086,156.338676 C1005.10109,156.18717 999.00306,154.495378 993.826605,151.26325 C988.650149,148.031122 984.572173,143.271379 981.592555,136.983879 C978.612937,130.69638 976.971646,123.638831 976.668634,115.81102 C976.365622,109.700277 977.047389,102.150341 978.713955,93.1609838 C980.380521,84.1716269 983.259092,76.0661767 987.349755,68.84439 C991.440417,61.6226033 996.41479,55.8402105 1002.27302,51.4970381 C1010.20184,45.6388055 1019.24156,42.8107356 1029.39246,43.0127437 C1040.14939,43.2147517 1048.6336,46.9392187 1054.84535,54.1862564 C1061.05709,61.4332941 1064.39018,71.2431614 1064.84469,83.6161526 C1065.0467,88.9188631 1064.50381,95.6607796 1063.21601,103.842104 C1061.92821,112.023429 1059.6304,119.623867 1056.32252,126.643646 C1053.01464,133.663424 1048.81041,139.54682 1043.70971,144.294008 C1034.82136,152.576337 1024.29185,156.591186 1012.12086,156.338676 Z M1050.83046,87.1007735 C1051.13347,77.1518785 1049.39118,69.437813 1045.60353,63.9583455 C1041.81588,58.4788779 1036.18499,55.6381828 1028.71069,55.4361748 C1021.94342,55.2341667 1015.8959,57.0522116 1010.56794,60.890364 C1005.23997,64.7285164 1000.87162,70.4730333 997.462731,78.124087 C994.053845,85.7751408 991.894917,95.458755 990.985881,107.17522 L990.758623,112.099141 C990.455611,121.997534 992.223155,129.749475 996.061307,135.355198 C999.89946,140.96092 1005.47985,143.864742 1012.80264,144.06675 C1022.34752,144.31926 1030.26359,140.87255 1036.55109,133.726516 C1042.83859,126.580483 1047.01756,116.54336 1049.08815,103.614847 C1050.09819,97.2515939 1050.67895,91.746958 1050.83046,87.1007735 Z" id="STO"></path>
            <rect id="Rectangle" x="745" y="0" width="5" height="200"></rect>
        </g>
    </g>
</svg>